<?xml version="1.0" encoding="UTF-8" standalone="no"?>
<svg width="22px" height="32px" viewBox="0 0 22 32" version="1.1" xmlns="http://www.w3.org/2000/svg" xmlns:xlink="http://www.w3.org/1999/xlink">
    <!-- Generator: Sketch 3.8.2 (29753) - http://www.bohemiancoding.com/sketch -->
    <title>Shape</title>
    <desc>Created with Sketch.</desc>
    <defs></defs>
    <g id="Presentation" stroke="none" stroke-width="1" fill="none" fill-rule="evenodd">
        <g id="Home" transform="translate(-668.000000, -3804.000000)" fill="#FFC86B">
            <g id="Group-10" transform="translate(0.000000, 914.000000)">
                <g id="Group-18" transform="translate(251.000000, 2529.000000)">
                    <g id="Group-17" transform="translate(279.000000, 300.000000)">
                        <path d="M150.907703,72.6888889 L154.708592,63.5671111 C154.825925,63.3288889 154.891703,63.0604444 154.891703,62.7777778 C154.891703,61.7964444 154.100592,61 153.119258,61 C152.676592,61.0071111 152.306814,61.1475556 152.013481,61.3804444 C151.954814,61.4266667 151.919258,61.4551111 151.889036,61.4871111 L138.555703,74.1093333 C138.148592,74.4951111 137.947703,75.0497778 138.011703,75.6062222 C138.075703,76.1626667 138.401036,76.6568889 138.884592,76.9395556 L146.425925,81.3128889 L142.580592,90.5395556 C142.255258,91.3146667 142.520147,92.2106667 143.209925,92.6871111 C143.515703,92.8968889 143.871258,93 144.219703,93 C144.660592,93 145.101481,92.8346667 145.442814,92.5128889 L158.776147,79.8871111 C159.183258,79.5013333 159.384147,78.9466667 159.320147,78.3902222 C159.256147,77.8337778 158.930814,77.3395556 158.447258,77.0586667 L150.907703,72.6888889 Z" id="Shape"></path>
                    </g>
                </g>
            </g>
        </g>
    </g>
</svg>