<?xml version="1.0" encoding="UTF-8" standalone="no"?>
<svg width="20px" height="18px" viewBox="0 0 20 18" version="1.1" xmlns="http://www.w3.org/2000/svg" xmlns:xlink="http://www.w3.org/1999/xlink">
    <!-- Generator: Sketch 3.8.2 (29753) - http://www.bohemiancoding.com/sketch -->
    <title>Shape</title>
    <desc>Created with Sketch.</desc>
    <defs></defs>
    <g id="Symbols" stroke="none" stroke-width="1" fill="none" fill-rule="evenodd">
        <g id="tabs_compartir" transform="translate(-80.000000, -15.000000)" fill="#FB6B8E" stroke="#FB6B8E">
            <g id="Group-19">
                <g id="Group-8" transform="translate(50.000000, 9.000000)">
                    <path d="M43.809424,7 C41.9372676,7 40.7554927,7.90624099 40.0696461,8.72570079 C39.3837995,7.90624099 38.202206,7 36.3293241,7 C33.1413434,7 31,9.93738991 31,12.6806498 C31,16.6742082 38.7124643,22.0264968 39.5918571,22.6235008 C39.7358831,22.7211071 39.9027646,22.7700005 40.0696461,22.7700005 C40.2365276,22.7700005 40.4034091,22.7211071 40.5474351,22.6235008 C41.4268279,22.0264968 49.1392922,16.6742082 49.1392922,12.6806498 C49.1392922,9.93738991 46.997586,7 43.809424,7 L43.809424,7 Z M40.0692833,20.8997846 C37.0322216,18.7513638 32.6949355,14.9059287 32.6949355,12.6806498 C32.6949355,11.0058269 33.9579744,8.68582835 36.3293241,8.68582835 C38.4864487,8.68582835 39.2479362,10.538724 39.2773218,10.6121543 C39.4012132,10.9376288 39.7148416,11.1505224 40.0647485,11.1534091 L40.0707345,11.1534091 C40.4184647,11.1534091 40.7320931,10.9392526 40.8601565,10.6177472 C40.891356,10.538724 41.6532063,8.68582835 43.8096054,8.68582835 C46.1811364,8.68582835 47.4445381,11.0056465 47.4445381,12.6806498 C47.4443567,14.9034029 43.1067078,18.7497401 40.0692833,20.8997846 L40.0692833,20.8997846 Z" id="Shape"></path>
                </g>
            </g>
        </g>
    </g>
</svg>