<?xml version="1.0" encoding="UTF-8" standalone="no"?>
<svg width="51px" height="50px" viewBox="0 0 51 50" version="1.1" xmlns="http://www.w3.org/2000/svg" xmlns:xlink="http://www.w3.org/1999/xlink">
    <!-- Generator: Sketch 3.8.2 (29753) - http://www.bohemiancoding.com/sketch -->
    <title>Shape</title>
    <desc>Created with Sketch.</desc>
    <defs></defs>
    <g id="Presentation" stroke="none" stroke-width="1" fill="none" fill-rule="evenodd">
        <g id="Home" transform="translate(-258.000000, -944.000000)" fill="#8E5FED">
            <g id="Group-10" transform="translate(0.000000, 914.000000)">
                <g id="Group-13" transform="translate(258.000000, 30.000000)">
                    <path d="M1.2978599,42.4637114 C-0.432619965,44.185509 -0.432619965,46.9857536 1.2978599,48.7075512 C3.02711159,50.4308163 5.83972474,50.4308163 7.55718609,48.7075512 L20.3782119,35.952675 C23.3684172,37.8091104 26.8950836,38.8864567 30.688998,38.8864567 C41.4792584,38.8864567 50.2161552,30.1867319 50.2161552,19.4429838 C50.2161552,8.69960257 41.4792584,0 30.688998,0 C19.8988604,0 11.1618407,8.69960257 11.1618407,19.4429838 C11.1618407,23.2096607 12.2449565,26.7320086 14.1084463,29.7093244 L1.2978599,42.4637114 L1.2978599,42.4637114 Z M30.688998,5.55512076 C38.3887122,5.55512076 44.6371078,11.7771935 44.6371078,19.4429838 C44.6371078,27.1096301 38.3887122,33.3309691 30.688998,33.3309691 C22.9892837,33.3309691 16.741011,27.1096301 16.741011,19.4429838 C16.741011,11.7771935 22.9892837,5.55512076 30.688998,5.55512076 Z" id="Shape"></path>
                </g>
            </g>
        </g>
    </g>
</svg>