<?xml version="1.0" encoding="UTF-8" standalone="no"?>
<svg width="17px" height="17px" viewBox="0 0 17 17" version="1.1" xmlns="http://www.w3.org/2000/svg" xmlns:xlink="http://www.w3.org/1999/xlink">
    <!-- Generator: Sketch 3.8.2 (29753) - http://www.bohemiancoding.com/sketch -->
    <title>Shape</title>
    <desc>Created with Sketch.</desc>
    <defs></defs>
    <g id="Symbols" stroke="none" stroke-width="1" fill="none" fill-rule="evenodd">
        <g id="tabs_compartir" transform="translate(-176.000000, -15.000000)" fill="#636363">
            <g id="Group-19">
                <g id="Group-14" transform="translate(176.000000, 14.000000)">
                    <path d="M13.6,11.2 C12.5772375,11.2 11.662,11.6541125 11.038525,12.3689625 L6.7241375,10.211875 C6.7730125,9.9821625 6.8,9.7441625 6.8,9.5 C6.8,9.2558375 6.7730125,9.0178375 6.7241375,8.7883375 L11.038525,6.6310375 C11.6617875,7.3461 12.5772375,7.8 13.6,7.8 C15.47765,7.8 17,6.27765 17,4.4 C17,2.52235 15.47765,1 13.6,1 C11.72235,1 10.2,2.52235 10.2,4.4 C10.2,4.6441625 10.2269875,4.8821625 10.2758625,5.1116625 L5.961475,7.2689625 C5.3382125,6.5539 4.422975,6.1 3.4,6.1 C1.52235,6.1 0,7.62235 0,9.5 C0,11.37765 1.52235,12.9 3.4,12.9 C4.422975,12.9 5.338,12.4458875 5.961475,11.7310375 L10.276075,13.8883375 C10.2269875,14.1178375 10.2,14.3558375 10.2,14.6 C10.2,16.47765 11.72235,18 13.6,18 C15.47765,18 17,16.47765 17,14.6 C17,12.72235 15.47765,11.2 13.6,11.2 L13.6,11.2 Z M13.6,2.7 C14.538825,2.7 15.3,3.461175 15.3,4.4 C15.3,5.338825 14.538825,6.1 13.6,6.1 C12.661175,6.1 11.9,5.338825 11.9,4.4 C11.9,3.461175 12.661175,2.7 13.6,2.7 L13.6,2.7 Z M3.4,11.2 C2.461175,11.2 1.7,10.438825 1.7,9.5 C1.7,8.561175 2.461175,7.8 3.4,7.8 C4.338825,7.8 5.1,8.561175 5.1,9.5 C5.1,10.438825 4.338825,11.2 3.4,11.2 L3.4,11.2 Z M13.6,16.3 C12.661175,16.3 11.9,15.538825 11.9,14.6 C11.9,13.661175 12.661175,12.9 13.6,12.9 C14.538825,12.9 15.3,13.661175 15.3,14.6 C15.3,15.538825 14.538825,16.3 13.6,16.3 L13.6,16.3 Z" id="Shape"></path>
                </g>
            </g>
        </g>
    </g>
</svg>